<svg xmlns="http://www.w3.org/2000/svg" version="1.1" xmlns:xlink="http://www.w3.org/1999/xlink" xmlns:svgjs="http://svgjs.dev/svgjs" width="1440" height="560" preserveAspectRatio="none" viewBox="0 0 1440 560"><g mask="url(&quot;#SvgjsMask1022&quot;)" fill="none"><path d="M1200.6 138.94 a96.1 96.1 0 1 0 192.2 0 a96.1 96.1 0 1 0 -192.2 0z" fill="rgba(28, 83, 142, 0.4)" class="triangle-float1"></path><path d="M163.725,340.088C192.797,338.225,209.625,310.012,223.071,284.169C235.174,260.908,242.236,234.777,230.793,211.184C217.809,184.413,193.467,162.65,163.725,161.807C132.727,160.929,105.017,180.205,89.732,207.186C74.669,233.776,74.694,266.024,89.56,292.725C104.853,320.194,132.35,342.098,163.725,340.088" fill="rgba(28, 83, 142, 0.4)" class="triangle-float3"></path><path d="M302.74 60.68 a117.02 117.02 0 1 0 234.04 0 a117.02 117.02 0 1 0 -234.04 0z" fill="rgba(28, 83, 142, 0.4)" class="triangle-float3"></path><path d="M-49.191143801528995 455.9784366062139L-57.97311338630047 623.5483986407103 109.59684864819587 632.3303682254817 118.37881823296735 464.7604061909854z" fill="rgba(28, 83, 142, 0.4)" class="triangle-float1"></path><path d="M975.0624377544085 581.5578055225877L1042.877572961278 627.2996917904418 1077.5828347596243 502.70604584621054z" fill="rgba(28, 83, 142, 0.4)" class="triangle-float2"></path><path d="M311.7921054195692 26.420163763240186L163.39965929350694 98.79599563592467 235.77549116619144 247.18844176198698 384.1679372922537 174.81260988930248z" fill="rgba(28, 83, 142, 0.4)" class="triangle-float1"></path></g><defs><mask id="SvgjsMask1022"><rect width="1440" height="560" fill="#ffffff"></rect></mask><style>
                @keyframes float1 {
                    0%{transform: translate(0, 0)}
                    50%{transform: translate(-10px, 0)}
                    100%{transform: translate(0, 0)}
                }

                .triangle-float1 {
                    animation: float1 5s infinite;
                }

                @keyframes float2 {
                    0%{transform: translate(0, 0)}
                    50%{transform: translate(-5px, -5px)}
                    100%{transform: translate(0, 0)}
                }

                .triangle-float2 {
                    animation: float2 4s infinite;
                    display: none;
                }

                @keyframes float3 {
                    0%{transform: translate(0, 0)}
                    50%{transform: translate(0, -10px)}
                    100%{transform: translate(0, 0)}
                }

                .triangle-float3 {
                    animation: float3 6s infinite;
                }

            </style></defs></svg>