<svg xmlns="http://www.w3.org/2000/svg" xmlns:xlink="http://www.w3.org/1999/xlink" width="500" zoomAndPan="magnify" viewBox="0 0 375 374.999991" height="500" preserveAspectRatio="xMidYMid meet" version="1.0"><defs><clipPath id="31445ecbd0"><path d="M 114 3.257812 L 285 3.257812 L 285 175 L 114 175 Z M 114 3.257812 " clip-rule="nonzero"/></clipPath></defs><path fill="#caddff" d="M 19.757812 125.574219 C 11.800781 142.691406 0.0195312 175.457031 4.753906 216.207031 C 10.828125 268.496094 40.902344 309.722656 70.15625 332.886719 C 167.226562 409.753906 344.929688 360.09375 368.460938 287.6875 C 372.730469 274.550781 371.527344 261.882812 370.050781 246.292969 C 365.351562 196.707031 340.609375 181.96875 323.964844 129.320312 C 308.824219 81.410156 323.753906 76.019531 309.59375 54.71875 C 278.871094 8.515625 190.199219 6.1875 129.183594 28.335938 C 105.75 36.847656 48.878906 62.945312 19.757812 125.574219 " fill-opacity="1" fill-rule="nonzero"/><g clip-path="url(#31445ecbd0)"><path fill="#99b9ff" d="M 114.265625 88.671875 C 114.265625 41.5 152.484375 3.257812 199.628906 3.257812 C 246.773438 3.257812 284.992188 41.5 284.992188 88.671875 C 284.992188 135.84375 246.773438 174.082031 199.628906 174.082031 C 152.484375 174.082031 114.265625 135.84375 114.265625 88.671875 " fill-opacity="1" fill-rule="nonzero"/></g><path fill="#ffffff" d="M 131.066406 88.667969 C 131.066406 50.78125 161.761719 20.066406 199.628906 20.066406 C 237.496094 20.066406 268.191406 50.78125 268.191406 88.667969 C 268.191406 126.558594 237.496094 157.273438 199.628906 157.273438 C 161.761719 157.273438 131.066406 126.558594 131.066406 88.667969 " fill-opacity="1" fill-rule="nonzero"/><path fill="#99b9ff" d="M 146.886719 88.671875 C 146.886719 59.523438 170.5 35.898438 199.628906 35.898438 C 228.757812 35.898438 252.371094 59.523438 252.371094 88.671875 C 252.371094 117.816406 228.757812 141.441406 199.628906 141.441406 C 170.5 141.441406 146.886719 117.816406 146.886719 88.671875 " fill-opacity="1" fill-rule="nonzero"/><path fill="#ffffff" d="M 165.574219 88.671875 C 165.574219 69.851562 180.820312 54.59375 199.628906 54.59375 C 218.4375 54.59375 233.683594 69.851562 233.683594 88.671875 C 233.683594 107.488281 218.4375 122.746094 199.628906 122.746094 C 180.820312 122.746094 165.574219 107.488281 165.574219 88.671875 " fill-opacity="1" fill-rule="nonzero"/><path fill="#5479f7" d="M 181.03125 88.671875 C 181.03125 78.394531 189.355469 70.0625 199.628906 70.0625 C 209.898438 70.0625 218.222656 78.394531 218.222656 88.671875 C 218.222656 98.949219 209.898438 107.28125 199.628906 107.28125 C 189.355469 107.28125 181.03125 98.949219 181.03125 88.671875 " fill-opacity="1" fill-rule="nonzero"/><path fill="#5479f7" d="M 121.738281 54.335938 C 121.648438 54.335938 121.554688 54.316406 121.464844 54.277344 C 121.128906 54.125 120.980469 53.734375 121.132812 53.398438 C 129.890625 33.914062 145.476562 18.445312 165.015625 9.84375 C 165.355469 9.699219 165.746094 9.847656 165.890625 10.183594 C 166.039062 10.519531 165.886719 10.914062 165.550781 11.0625 C 146.3125 19.53125 130.96875 34.761719 122.34375 53.941406 C 122.234375 54.1875 121.992188 54.335938 121.738281 54.335938 " fill-opacity="1" fill-rule="nonzero"/><path fill="#5479f7" d="M 149.257812 105.027344 C 148.976562 105.027344 148.710938 104.84375 148.625 104.558594 C 147.03125 99.433594 146.222656 94.089844 146.222656 88.667969 C 146.222656 88.304688 146.519531 88.003906 146.886719 88.003906 C 147.257812 88.003906 147.550781 88.304688 147.550781 88.667969 C 147.550781 93.957031 148.339844 99.167969 149.894531 104.164062 C 150.003906 104.515625 149.804688 104.886719 149.457031 105 C 149.390625 105.015625 149.324219 105.027344 149.257812 105.027344 " fill-opacity="1" fill-rule="nonzero"/><path fill="#5479f7" d="M 251.296875 78.699219 C 250.984375 78.699219 250.710938 78.484375 250.644531 78.167969 C 248.273438 66.585938 241.917969 56.035156 232.75 48.464844 C 232.46875 48.230469 232.425781 47.8125 232.660156 47.527344 C 232.894531 47.246094 233.3125 47.203125 233.597656 47.4375 C 243 55.203125 249.515625 66.023438 251.949219 77.902344 C 252.019531 78.261719 251.789062 78.613281 251.429688 78.6875 C 251.382812 78.699219 251.339844 78.699219 251.296875 78.699219 " fill-opacity="1" fill-rule="nonzero"/><path fill="#5479f7" d="M 146.886719 89.335938 C 146.519531 89.335938 146.222656 89.039062 146.222656 88.671875 C 146.222656 59.207031 170.179688 35.234375 199.628906 35.234375 C 205.1875 35.234375 210.667969 36.085938 215.917969 37.765625 C 216.265625 37.875 216.460938 38.253906 216.34375 38.601562 C 216.234375 38.953125 215.863281 39.148438 215.511719 39.035156 C 210.394531 37.394531 205.050781 36.566406 199.628906 36.566406 C 170.910156 36.566406 147.550781 59.941406 147.550781 88.671875 C 147.550781 89.039062 147.253906 89.335938 146.886719 89.335938 " fill-opacity="1" fill-rule="nonzero"/><path fill="#ffffff" d="M 218.09375 155.285156 L 230.464844 155.285156 C 234.03125 155.285156 236.222656 151.285156 234.371094 148.160156 L 203.730469 96.402344 C 201.972656 93.429688 197.675781 93.429688 195.917969 96.402344 L 165.277344 148.160156 C 163.425781 151.285156 165.617188 155.285156 169.179688 155.285156 L 179.539062 155.285156 C 182.351562 155.285156 184.5 157.863281 184.054688 160.714844 C 178.757812 194.644531 148.066406 305.066406 28.929688 297.257812 C 34.574219 310.128906 45.808594 322.09375 58.996094 334.746094 C 71.296875 346.550781 87.761719 352.769531 104.230469 357.15625 C 111.019531 358.964844 117.746094 360.78125 119.027344 361.222656 C 202.417969 307.175781 212.914062 191.765625 213.527344 159.878906 C 213.574219 157.328125 215.609375 155.285156 218.09375 155.285156 " fill-opacity="1" fill-rule="nonzero"/><path fill="#5479f7" d="M 218.441406 121.917969 C 218.214844 121.917969 217.992188 121.800781 217.867188 121.59375 L 203.15625 96.742188 C 202.453125 95.550781 201.207031 94.839844 199.820312 94.839844 C 198.4375 94.839844 197.191406 95.550781 196.488281 96.742188 L 186.671875 113.320312 C 186.488281 113.636719 186.078125 113.738281 185.761719 113.554688 C 185.445312 113.367188 185.34375 112.957031 185.53125 112.640625 L 195.34375 96.0625 C 196.289062 94.464844 197.964844 93.511719 199.820312 93.511719 C 201.679688 93.511719 203.355469 94.464844 204.300781 96.0625 L 219.011719 120.914062 C 219.199219 121.230469 219.09375 121.636719 218.78125 121.824219 C 218.671875 121.890625 218.558594 121.917969 218.441406 121.917969 " fill-opacity="1" fill-rule="nonzero"/><path fill="#5479f7" d="M 203.476562 231.78125 C 203.421875 231.78125 203.367188 231.777344 203.3125 231.761719 C 202.957031 231.671875 202.742188 231.3125 202.832031 230.953125 C 211.292969 197.582031 212.664062 170.125 212.859375 159.867188 C 212.917969 156.972656 215.261719 154.621094 218.09375 154.621094 L 230.464844 154.621094 C 231.863281 154.621094 233.121094 153.878906 233.832031 152.636719 C 234.574219 151.335938 234.5625 149.785156 233.796875 148.5 C 233.609375 148.183594 233.714844 147.773438 234.03125 147.585938 C 234.347656 147.398438 234.753906 147.503906 234.941406 147.820312 C 235.953125 149.523438 235.96875 151.570312 234.984375 153.292969 C 234.039062 154.957031 232.347656 155.953125 230.464844 155.953125 L 218.09375 155.953125 C 215.980469 155.953125 214.230469 157.71875 214.191406 159.890625 C 213.992188 170.195312 212.617188 197.777344 204.121094 231.28125 C 204.042969 231.582031 203.773438 231.78125 203.476562 231.78125 " fill-opacity="1" fill-rule="nonzero"/><path fill="#5479f7" d="M 69.054688 295.789062 C 68.738281 295.789062 68.460938 295.566406 68.402344 295.246094 C 68.332031 294.882812 68.570312 294.539062 68.933594 294.46875 C 85.058594 291.457031 99.980469 285.667969 113.292969 277.265625 C 113.605469 277.070312 114.015625 277.160156 114.210938 277.472656 C 114.40625 277.78125 114.3125 278.195312 114.003906 278.390625 C 100.546875 286.882812 85.464844 292.734375 69.175781 295.777344 C 69.136719 295.785156 69.09375 295.789062 69.054688 295.789062 " fill-opacity="1" fill-rule="nonzero"/><path fill="#5479f7" d="M 157.644531 232.878906 C 157.523438 232.878906 157.402344 232.847656 157.296875 232.777344 C 156.984375 232.585938 156.886719 232.179688 157.078125 231.867188 C 175.964844 201.222656 182 169.578125 183.398438 160.609375 C 183.585938 159.421875 183.246094 158.222656 182.472656 157.316406 C 181.730469 156.449219 180.660156 155.953125 179.539062 155.953125 L 170.308594 155.953125 C 169.941406 155.953125 169.644531 155.652344 169.644531 155.285156 C 169.644531 154.917969 169.941406 154.621094 170.308594 154.621094 L 179.539062 154.621094 C 181.050781 154.621094 182.488281 155.289062 183.480469 156.453125 C 184.511719 157.652344 184.957031 159.242188 184.710938 160.816406 C 183.304688 169.84375 177.226562 201.710938 158.210938 232.5625 C 158.085938 232.765625 157.867188 232.878906 157.644531 232.878906 " fill-opacity="1" fill-rule="nonzero"/><path fill="#5479f7" d="M 172.863281 309.019531 L 144.226562 337.675781 C 144.203125 337.699219 144.171875 337.710938 144.140625 337.710938 L 73.226562 337.441406 C 73.117188 337.441406 73.066406 337.308594 73.140625 337.234375 L 101.566406 308.792969 C 101.589844 308.769531 101.621094 308.753906 101.652344 308.753906 L 172.777344 308.8125 C 172.886719 308.8125 172.9375 308.945312 172.863281 309.019531 " fill-opacity="1" fill-rule="nonzero"/><path fill="#000000" d="M 74.535156 336.78125 L 143.917969 337.042969 L 171.464844 309.480469 L 101.875 309.421875 Z M 73.613281 337.703125 L 73.609375 337.703125 C 73.613281 337.703125 73.613281 337.703125 73.613281 337.703125 Z M 144.140625 338.375 L 73.222656 338.105469 C 72.90625 338.101562 72.621094 337.910156 72.5 337.617188 C 72.378906 337.324219 72.445312 336.988281 72.671875 336.761719 L 101.09375 308.320312 C 101.25 308.171875 101.445312 308.089844 101.652344 308.089844 L 172.78125 308.148438 C 173.097656 308.148438 173.382812 308.339844 173.503906 308.636719 C 173.625 308.929688 173.558594 309.265625 173.332031 309.492188 L 144.699219 338.144531 C 144.550781 338.292969 144.347656 338.375 144.140625 338.375 " fill-opacity="1" fill-rule="nonzero"/><path fill="#99b9ff" d="M 172.929688 308.839844 L 172.929688 342.957031 L 144.484375 371.433594 C 144.378906 371.542969 144.191406 371.464844 144.191406 371.3125 L 144.191406 337.710938 C 144.191406 337.710938 172.519531 308.859375 172.929688 308.839844 " fill-opacity="1" fill-rule="nonzero"/><path fill="#000000" d="M 144.855469 337.980469 L 144.855469 370.121094 L 172.265625 342.683594 L 172.265625 310.34375 C 168.367188 314.113281 154.488281 328.171875 144.855469 337.980469 Z M 144.015625 370.960938 C 144.015625 370.964844 144.015625 370.964844 144.015625 370.964844 Z M 144.367188 372.148438 C 144.257812 372.148438 144.148438 372.128906 144.046875 372.085938 C 143.730469 371.957031 143.527344 371.652344 143.527344 371.3125 L 143.527344 337.710938 C 143.527344 337.535156 143.597656 337.367188 143.714844 337.242188 C 143.789062 337.171875 150.882812 329.949219 157.933594 322.8125 C 172.382812 308.203125 172.523438 308.195312 172.894531 308.175781 C 173.078125 308.167969 173.253906 308.234375 173.386719 308.359375 C 173.519531 308.484375 173.59375 308.660156 173.59375 308.839844 L 173.59375 342.957031 C 173.59375 343.132812 173.523438 343.304688 173.398438 343.425781 L 144.957031 371.902344 C 144.796875 372.066406 144.582031 372.148438 144.367188 372.148438 " fill-opacity="1" fill-rule="nonzero"/><path fill="#ffffff" d="M 144.191406 371.484375 L 73.058594 371.214844 L 73.117188 337.5 L 144.191406 337.710938 C 144.191406 337.710938 144.191406 371.582031 144.191406 371.484375 " fill-opacity="1" fill-rule="nonzero"/><path fill="#000000" d="M 73.722656 370.554688 L 143.527344 370.816406 L 143.527344 338.371094 L 73.78125 338.167969 Z M 144.191406 372.148438 C 144.191406 372.148438 144.191406 372.148438 144.1875 372.148438 L 73.054688 371.882812 C 72.6875 371.878906 72.390625 371.582031 72.390625 371.214844 L 72.453125 337.5 C 72.453125 337.324219 72.523438 337.152344 72.648438 337.027344 C 72.773438 336.90625 72.941406 336.835938 73.117188 336.835938 C 73.117188 336.835938 73.117188 336.835938 73.121094 336.835938 L 144.195312 337.042969 C 144.558594 337.046875 144.855469 337.34375 144.855469 337.710938 L 144.855469 371.484375 C 144.855469 371.660156 144.785156 371.832031 144.660156 371.953125 C 144.535156 372.078125 144.367188 372.148438 144.191406 372.148438 " fill-opacity="1" fill-rule="nonzero"/><path fill="#5479f7" d="M 270.027344 235.09375 L 241.414062 263.722656 L 162.171875 263.453125 C 162.089844 263.453125 162.050781 263.351562 162.105469 263.292969 L 190.613281 234.769531 L 269.914062 234.828125 C 270.054688 234.828125 270.125 234.996094 270.027344 235.09375 " fill-opacity="1" fill-rule="nonzero"/><path fill="#000000" d="M 270.023438 235.09375 L 270.03125 235.09375 Z M 163.546875 262.792969 L 241.140625 263.058594 L 268.6875 235.492188 L 190.886719 235.433594 Z M 241.414062 264.386719 L 162.167969 264.117188 C 161.863281 264.117188 161.589844 263.929688 161.472656 263.648438 C 161.355469 263.363281 161.417969 263.039062 161.636719 262.824219 L 190.144531 234.300781 C 190.269531 234.175781 190.4375 234.105469 190.613281 234.105469 L 269.914062 234.164062 C 270.25 234.164062 270.546875 234.363281 270.671875 234.667969 C 270.800781 234.976562 270.730469 235.328125 270.496094 235.566406 C 270.496094 235.566406 270.496094 235.566406 270.492188 235.566406 L 241.882812 264.191406 C 241.761719 264.316406 241.589844 264.386719 241.414062 264.386719 " fill-opacity="1" fill-rule="nonzero"/><path fill="#99b9ff" d="M 270.152344 234.851562 L 270.152344 342.746094 L 241.632812 371.300781 C 241.554688 371.378906 241.414062 371.324219 241.414062 371.207031 L 241.414062 263.722656 C 241.414062 263.722656 269.746094 234.875 270.152344 234.851562 " fill-opacity="1" fill-rule="nonzero"/><path fill="#000000" d="M 242.078125 263.996094 L 242.078125 369.914062 L 269.488281 342.472656 L 269.488281 236.355469 C 265.585938 240.128906 251.714844 254.183594 242.078125 263.996094 Z M 241.546875 372.003906 C 241.441406 372.003906 241.339844 371.984375 241.242188 371.941406 C 240.941406 371.820312 240.75 371.53125 240.75 371.207031 L 240.75 263.722656 C 240.75 263.550781 240.820312 263.382812 240.941406 263.257812 C 241.011719 263.183594 248.105469 255.960938 255.15625 248.828125 C 269.605469 234.214844 269.746094 234.210938 270.121094 234.1875 C 270.300781 234.183594 270.476562 234.246094 270.609375 234.371094 C 270.742188 234.496094 270.816406 234.671875 270.816406 234.855469 L 270.816406 342.746094 C 270.816406 342.921875 270.75 343.089844 270.625 343.214844 L 242.101562 371.769531 C 241.949219 371.921875 241.75 372.003906 241.546875 372.003906 " fill-opacity="1" fill-rule="nonzero"/><path fill="#ffffff" d="M 241.417969 371.484375 L 162.070312 371.214844 C 162.242188 371.386719 162.128906 263.511719 162.128906 263.511719 L 241.417969 263.722656 C 241.417969 263.722656 241.417969 371.582031 241.417969 371.484375 " fill-opacity="1" fill-rule="nonzero"/><path fill="#000000" d="M 162.757812 370.554688 L 240.75 370.816406 L 240.75 264.386719 L 162.796875 264.179688 C 162.800781 268.480469 162.824219 292.90625 162.828125 317.339844 C 162.832031 330.796875 162.832031 344.257812 162.816406 354.359375 C 162.808594 359.410156 162.800781 363.621094 162.785156 366.574219 C 162.78125 368.046875 162.773438 369.207031 162.765625 370.003906 C 162.761719 370.210938 162.761719 370.394531 162.757812 370.554688 Z M 241.417969 372.148438 L 241.414062 372.148438 L 162.066406 371.882812 C 161.746094 371.882812 161.472656 371.648438 161.417969 371.332031 C 161.402344 371.257812 161.402344 371.183594 161.414062 371.109375 C 161.539062 368.957031 161.503906 299.894531 161.464844 263.515625 C 161.464844 263.335938 161.535156 263.167969 161.660156 263.042969 C 161.785156 262.917969 161.953125 262.847656 162.128906 262.847656 C 162.132812 262.847656 162.132812 262.847656 162.132812 262.847656 L 241.417969 263.058594 C 241.785156 263.058594 242.082031 263.355469 242.082031 263.722656 L 242.082031 371.484375 C 242.082031 371.660156 242.011719 371.832031 241.886719 371.957031 C 241.761719 372.082031 241.589844 372.148438 241.417969 372.148438 " fill-opacity="1" fill-rule="nonzero"/><path fill="#caddff" d="M 216.769531 286.179688 C 216.597656 286.179688 216.429688 286.117188 216.296875 285.984375 C 216.039062 285.722656 216.039062 285.304688 216.296875 285.042969 L 223.523438 277.816406 C 223.78125 277.558594 224.203125 277.558594 224.460938 277.816406 C 224.722656 278.078125 224.722656 278.496094 224.460938 278.757812 L 217.238281 285.984375 C 217.109375 286.117188 216.9375 286.179688 216.769531 286.179688 " fill-opacity="1" fill-rule="nonzero"/><path fill="#5479f7" d="M 370.476562 142.746094 L 341.597656 171.640625 L 263.40625 171.371094 C 263.289062 171.371094 263.230469 171.230469 263.3125 171.148438 L 291.757812 142.6875 L 370.476562 142.746094 " fill-opacity="1" fill-rule="nonzero"/><path fill="#000000" d="M 264.691406 170.710938 L 341.324219 170.976562 L 368.871094 143.410156 L 292.03125 143.351562 Z M 341.597656 172.308594 C 341.59375 172.308594 341.59375 172.308594 341.59375 172.308594 L 263.398438 172.039062 C 263.078125 172.035156 262.792969 171.84375 262.671875 171.542969 C 262.546875 171.246094 262.613281 170.90625 262.839844 170.679688 L 291.285156 142.21875 C 291.410156 142.09375 291.582031 142.023438 291.757812 142.023438 L 370.476562 142.078125 C 370.742188 142.078125 370.984375 142.242188 371.089844 142.492188 C 371.191406 142.742188 371.132812 143.027344 370.941406 143.21875 L 342.0625 172.113281 C 341.941406 172.234375 341.769531 172.308594 341.597656 172.308594 " fill-opacity="1" fill-rule="nonzero"/><path fill="#99b9ff" d="M 370.476562 142.769531 L 370.476562 343.070312 L 342.035156 371.542969 C 341.925781 371.652344 341.734375 371.578125 341.734375 371.421875 L 341.734375 171.640625 C 341.734375 171.640625 370.066406 142.792969 370.476562 142.769531 " fill-opacity="1" fill-rule="nonzero"/><path fill="#000000" d="M 342.398438 171.914062 L 342.398438 370.238281 L 369.808594 342.796875 L 369.808594 144.273438 C 365.910156 148.050781 352.035156 162.105469 342.398438 171.914062 Z M 341.910156 372.261719 C 341.804688 372.261719 341.691406 372.242188 341.589844 372.199219 C 341.277344 372.066406 341.074219 371.761719 341.074219 371.421875 L 341.074219 171.640625 C 341.074219 171.464844 341.140625 171.300781 341.261719 171.175781 C 341.332031 171.105469 348.425781 163.878906 355.480469 156.746094 C 369.925781 142.132812 370.066406 142.128906 370.4375 142.109375 C 370.617188 142.101562 370.800781 142.164062 370.929688 142.289062 C 371.0625 142.414062 371.140625 142.589844 371.140625 142.769531 L 371.140625 343.070312 C 371.140625 343.25 371.070312 343.417969 370.945312 343.539062 L 342.5 372.015625 C 342.339844 372.175781 342.128906 372.261719 341.910156 372.261719 " fill-opacity="1" fill-rule="nonzero"/><path fill="#ffffff" d="M 341.734375 371.601562 L 263.210938 371.332031 C 263.382812 371.5 263.273438 171.429688 263.273438 171.429688 L 341.734375 171.640625 C 341.734375 171.640625 341.734375 371.695312 341.734375 371.601562 " fill-opacity="1" fill-rule="nonzero"/><path fill="#000000" d="M 263.890625 370.667969 L 341.074219 370.929688 L 341.074219 172.300781 L 263.9375 172.097656 C 263.941406 178.171875 263.96875 224.761719 263.972656 271.355469 C 263.976562 296.335938 263.976562 321.324219 263.960938 340.066406 C 263.953125 349.441406 263.941406 357.25 263.929688 362.722656 C 263.925781 365.457031 263.914062 367.609375 263.90625 369.078125 C 263.90625 369.769531 263.898438 370.28125 263.890625 370.667969 Z M 341.738281 372.261719 C 341.738281 372.261719 341.738281 372.261719 341.734375 372.261719 L 263.210938 371.996094 C 262.890625 371.996094 262.617188 371.765625 262.558594 371.449219 C 262.546875 371.378906 262.546875 371.308594 262.554688 371.238281 C 262.714844 367.921875 262.609375 173.398438 262.605469 171.429688 C 262.605469 171.257812 262.679688 171.082031 262.804688 170.957031 C 262.929688 170.835938 263.097656 170.765625 263.273438 170.765625 C 263.277344 170.765625 263.277344 170.765625 263.277344 170.765625 L 341.738281 170.972656 C 342.105469 170.972656 342.402344 171.273438 342.402344 171.640625 L 342.402344 371.597656 C 342.402344 371.773438 342.332031 371.945312 342.207031 372.070312 C 342.082031 372.195312 341.914062 372.261719 341.738281 372.261719 " fill-opacity="1" fill-rule="nonzero"/><path fill="#caddff" d="M 296.621094 216.875 C 296.453125 216.875 296.28125 216.808594 296.148438 216.679688 C 295.890625 216.417969 295.890625 216 296.148438 215.742188 L 318.890625 192.988281 C 319.148438 192.726562 319.570312 192.726562 319.828125 192.988281 C 320.089844 193.246094 320.089844 193.667969 319.828125 193.925781 L 297.089844 216.679688 C 296.960938 216.808594 296.789062 216.875 296.621094 216.875 " fill-opacity="1" fill-rule="nonzero"/><path fill="#caddff" d="M 295.820312 199.742188 C 295.648438 199.742188 295.480469 199.675781 295.351562 199.546875 C 295.089844 199.289062 295.089844 198.867188 295.351562 198.605469 L 302.574219 191.378906 C 302.832031 191.121094 303.253906 191.121094 303.511719 191.378906 C 303.773438 191.640625 303.773438 192.0625 303.511719 192.320312 L 296.292969 199.546875 C 296.160156 199.675781 295.992188 199.742188 295.820312 199.742188 " fill-opacity="1" fill-rule="nonzero"/><path fill="#ffffff" d="M 29.828125 340.628906 L 27.589844 360.492188 L 36.03125 364.011719 L 39.140625 342.355469 L 29.828125 340.628906 " fill-opacity="1" fill-rule="nonzero"/><path fill="#000000" d="M 28.304688 360.070312 L 35.496094 363.066406 L 38.390625 342.890625 L 30.40625 341.410156 Z M 36.03125 364.671875 C 35.945312 364.671875 35.859375 364.65625 35.777344 364.625 L 27.332031 361.105469 C 27.058594 360.992188 26.894531 360.710938 26.929688 360.417969 L 29.167969 340.554688 C 29.1875 340.371094 29.28125 340.203125 29.429688 340.09375 C 29.578125 339.984375 29.765625 339.941406 29.949219 339.976562 L 39.261719 341.699219 C 39.613281 341.765625 39.851562 342.09375 39.800781 342.449219 L 36.691406 364.105469 C 36.660156 364.308594 36.539062 364.484375 36.359375 364.585938 C 36.257812 364.644531 36.144531 364.671875 36.03125 364.671875 " fill-opacity="1" fill-rule="nonzero"/><path fill="#99b9ff" d="M 25.625 358.617188 C 25.355469 360.5 24.929688 363.992188 24.890625 367.125 C 24.871094 369.09375 26.347656 370.75 28.296875 371 C 33.808594 371.707031 46.3125 372.484375 56.960938 371.515625 C 57.691406 371.449219 58.980469 370.917969 59.339844 369.097656 C 60.546875 362.980469 49.910156 361.480469 38.25 357.042969 C 37.792969 356.871094 37.277344 356.972656 36.925781 357.3125 L 35.667969 358.53125 C 34.410156 359.75 32.546875 360.097656 30.933594 359.410156 L 27.109375 357.777344 C 26.457031 357.5 25.722656 357.914062 25.625 358.617188 " fill-opacity="1" fill-rule="nonzero"/><path fill="#000000" d="M 25.625 358.617188 L 25.628906 358.617188 Z M 26.6875 358.351562 C 26.601562 358.351562 26.527344 358.382812 26.484375 358.40625 C 26.421875 358.445312 26.304688 358.535156 26.28125 358.710938 C 26.027344 360.515625 25.59375 364.011719 25.558594 367.132812 C 25.539062 368.753906 26.753906 370.132812 28.378906 370.339844 C 34.070312 371.070312 46.359375 371.8125 56.902344 370.851562 C 57.144531 370.832031 58.359375 370.640625 58.6875 368.96875 C 59.496094 364.859375 53.804688 362.992188 45.929688 360.40625 C 43.386719 359.574219 40.761719 358.710938 38.015625 357.664062 C 37.796875 357.582031 37.550781 357.632812 37.386719 357.789062 L 36.132812 359.007812 C 34.675781 360.417969 32.535156 360.8125 30.671875 360.019531 L 26.847656 358.386719 C 26.792969 358.363281 26.738281 358.351562 26.6875 358.351562 Z M 45.867188 372.636719 C 38.691406 372.636719 32 372.148438 28.210938 371.660156 C 25.914062 371.363281 24.203125 369.414062 24.226562 367.117188 C 24.265625 363.925781 24.707031 360.363281 24.964844 358.523438 C 25.042969 357.980469 25.359375 357.519531 25.835938 357.25 C 26.308594 356.980469 26.867188 356.949219 27.371094 357.164062 L 31.195312 358.796875 C 32.5625 359.382812 34.136719 359.089844 35.207031 358.054688 L 36.464844 356.835938 C 36.996094 356.320312 37.789062 356.15625 38.488281 356.421875 C 41.203125 357.457031 43.816406 358.3125 46.34375 359.144531 C 54.550781 361.835938 61.027344 363.964844 59.992188 369.226562 C 59.59375 371.242188 58.144531 372.078125 57.023438 372.175781 C 53.398438 372.507812 49.566406 372.636719 45.867188 372.636719 " fill-opacity="1" fill-rule="nonzero"/><path fill="#ffffff" d="M 24.902344 366.652344 C 24.902344 366.652344 24.894531 366.972656 24.890625 367.125 C 24.871094 369.09375 26.347656 370.75 28.296875 371 C 33.808594 371.707031 46.3125 372.484375 56.960938 371.515625 C 57.691406 371.449219 58.980469 370.917969 59.339844 369.097656 C 59.449219 368.539062 59.382812 367.53125 59.382812 367.53125 L 58.628906 367.566406 C 47.863281 368.101562 37.078125 367.84375 26.351562 366.796875 L 24.902344 366.652344 " fill-opacity="1" fill-rule="nonzero"/><path fill="#000000" d="M 25.5625 367.386719 C 25.667969 368.894531 26.839844 370.144531 28.378906 370.339844 C 34.070312 371.070312 46.359375 371.8125 56.902344 370.851562 C 57.144531 370.832031 58.359375 370.640625 58.6875 368.96875 C 58.726562 368.777344 58.738281 368.496094 58.738281 368.230469 L 58.660156 368.234375 C 47.898438 368.765625 37.007812 368.503906 26.289062 367.457031 Z M 45.867188 372.636719 C 38.691406 372.636719 32 372.148438 28.210938 371.660156 C 25.914062 371.363281 24.203125 369.414062 24.226562 367.117188 L 24.234375 366.640625 C 24.238281 366.457031 24.320312 366.28125 24.460938 366.15625 C 24.597656 366.035156 24.777344 365.972656 24.964844 365.992188 L 26.417969 366.132812 C 37.074219 367.171875 47.898438 367.429688 58.59375 366.90625 L 59.351562 366.867188 C 59.722656 366.855469 60.019531 367.125 60.046875 367.488281 C 60.054688 367.597656 60.117188 368.597656 59.992188 369.226562 C 59.59375 371.242188 58.144531 372.078125 57.023438 372.175781 C 53.398438 372.507812 49.566406 372.636719 45.867188 372.636719 " fill-opacity="1" fill-rule="nonzero"/><path fill="#000000" d="M 40.925781 364.3125 C 40.753906 364.3125 40.585938 364.25 40.453125 364.121094 C 40.195312 363.859375 40.195312 363.4375 40.453125 363.179688 L 44.546875 359.082031 C 44.804688 358.824219 45.226562 358.824219 45.484375 359.082031 C 45.746094 359.34375 45.746094 359.765625 45.484375 360.023438 L 41.394531 364.121094 C 41.265625 364.25 41.09375 364.3125 40.925781 364.3125 " fill-opacity="1" fill-rule="nonzero"/><path fill="#000000" d="M 44.945312 364.738281 C 44.777344 364.738281 44.613281 364.675781 44.484375 364.554688 C 44.21875 364.300781 44.210938 363.878906 44.464844 363.613281 L 47.734375 360.214844 C 47.988281 359.953125 48.410156 359.945312 48.671875 360.199219 C 48.9375 360.453125 48.945312 360.871094 48.691406 361.136719 L 45.421875 364.535156 C 45.292969 364.667969 45.117188 364.738281 44.945312 364.738281 " fill-opacity="1" fill-rule="nonzero"/><path fill="#000000" d="M 60.492188 209.71875 C 60.492188 209.71875 55.351562 212.703125 53.34375 230.207031 C 51.339844 247.707031 52.007812 268.339844 38.039062 288.796875 C 26.882812 305.136719 27.863281 332.714844 26.242188 350.789062 C 26.164062 351.664062 26.835938 352.421875 27.710938 352.449219 L 38.402344 352.816406 C 39.085938 352.839844 39.699219 352.410156 39.910156 351.761719 C 41.820312 345.839844 51.328125 317.265625 62.003906 300.695312 C 73.289062 283.183594 87.015625 237.734375 87.015625 237.734375 C 87.015625 237.734375 84.464844 226.246094 84.113281 215.234375 C 83.757812 204.21875 60.492188 209.71875 60.492188 209.71875 " fill-opacity="1" fill-rule="nonzero"/><path fill="#ffffff" d="M 119.199219 290.925781 L 114.6875 310.398438 L 122.671875 314.867188 L 128.253906 293.714844 L 119.199219 290.925781 " fill-opacity="1" fill-rule="nonzero"/><path fill="#000000" d="M 115.449219 310.0625 L 122.246094 313.867188 L 127.449219 294.160156 L 119.683594 291.769531 Z M 122.671875 315.53125 C 122.558594 315.53125 122.445312 315.503906 122.34375 315.449219 L 114.363281 310.980469 C 114.105469 310.835938 113.972656 310.539062 114.042969 310.25 L 118.550781 290.773438 C 118.59375 290.597656 118.707031 290.441406 118.867188 290.347656 C 119.027344 290.257812 119.21875 290.234375 119.394531 290.289062 L 128.449219 293.078125 C 128.789062 293.179688 128.988281 293.539062 128.894531 293.882812 L 123.3125 315.035156 C 123.261719 315.234375 123.121094 315.398438 122.929688 315.476562 C 122.847656 315.515625 122.757812 315.53125 122.671875 315.53125 " fill-opacity="1" fill-rule="nonzero"/><path fill="#99b9ff" d="M 113.730469 309.246094 C 113.464844 311.132812 111.773438 314.703125 111.738281 317.832031 C 111.714844 319.800781 113.191406 321.457031 115.140625 321.710938 C 120.652344 322.417969 134.417969 323.113281 145.066406 322.148438 C 145.796875 322.082031 147.089844 321.550781 147.445312 319.730469 C 148.652344 313.609375 138.019531 312.113281 126.355469 307.675781 C 125.898438 307.503906 125.382812 307.605469 125.03125 307.945312 L 123.777344 309.164062 C 122.515625 310.382812 120.652344 310.726562 119.039062 310.039062 L 115.214844 308.410156 C 114.566406 308.132812 113.828125 308.546875 113.730469 309.246094 " fill-opacity="1" fill-rule="nonzero"/><path fill="#000000" d="M 114.386719 309.34375 C 114.28125 310.09375 113.984375 311.035156 113.636719 312.128906 C 113.097656 313.835938 112.421875 315.96875 112.402344 317.839844 C 112.382812 319.460938 113.597656 320.839844 115.222656 321.050781 C 120.21875 321.691406 134.085938 322.476562 145.011719 321.484375 C 145.25 321.464844 146.464844 321.269531 146.792969 319.601562 C 147.605469 315.492188 141.914062 313.625 134.035156 311.039062 C 131.496094 310.207031 128.867188 309.34375 126.121094 308.296875 C 125.902344 308.214844 125.660156 308.265625 125.496094 308.421875 L 124.238281 309.640625 C 122.785156 311.050781 120.644531 311.445312 118.78125 310.652344 L 114.957031 309.019531 C 114.792969 308.953125 114.660156 309.003906 114.59375 309.039062 C 114.527344 309.078125 114.414062 309.167969 114.386719 309.34375 Z M 133.128906 323.28125 C 125.921875 323.28125 118.917969 322.863281 115.054688 322.367188 C 112.757812 322.074219 111.046875 320.121094 111.070312 317.824219 C 111.097656 315.753906 111.804688 313.519531 112.371094 311.726562 C 112.699219 310.691406 112.980469 309.796875 113.070312 309.15625 C 113.148438 308.613281 113.464844 308.148438 113.941406 307.882812 C 114.414062 307.613281 114.976562 307.582031 115.476562 307.796875 L 119.300781 309.429688 C 120.667969 310.011719 122.246094 309.722656 123.3125 308.6875 L 124.570312 307.46875 C 125.101562 306.953125 125.894531 306.789062 126.59375 307.054688 C 129.308594 308.085938 131.921875 308.945312 134.449219 309.777344 C 142.65625 312.46875 149.136719 314.597656 148.101562 319.859375 C 147.699219 321.875 146.25 322.710938 145.128906 322.808594 C 141.429688 323.148438 137.246094 323.28125 133.128906 323.28125 " fill-opacity="1" fill-rule="nonzero"/><path fill="#ffffff" d="M 112.035156 317.230469 C 112.035156 317.230469 112.03125 317.550781 112.027344 317.703125 C 112.007812 319.671875 113.480469 321.328125 115.429688 321.578125 C 120.945312 322.285156 134.417969 323.113281 145.066406 322.148438 C 145.796875 322.082031 147.089844 321.550781 147.445312 319.730469 C 147.554688 319.171875 147.488281 318.164062 147.488281 318.164062 L 146.734375 318.199219 C 135.972656 318.734375 125.183594 318.472656 114.460938 317.425781 L 112.035156 317.230469 " fill-opacity="1" fill-rule="nonzero"/><path fill="#000000" d="M 112.699219 317.953125 C 112.796875 319.464844 113.96875 320.71875 115.515625 320.917969 C 120.34375 321.539062 133.90625 322.496094 145.011719 321.484375 C 145.25 321.464844 146.464844 321.269531 146.792969 319.601562 C 146.832031 319.410156 146.84375 319.128906 146.84375 318.859375 L 146.765625 318.863281 C 136.003906 319.394531 125.113281 319.132812 114.394531 318.089844 Z M 134.152344 323.253906 C 126.164062 323.253906 118.6875 322.667969 115.347656 322.238281 C 113.050781 321.945312 111.335938 319.992188 111.363281 317.695312 L 111.371094 317.21875 C 111.375 317.035156 111.457031 316.859375 111.589844 316.738281 C 111.726562 316.613281 111.90625 316.554688 112.089844 316.570312 L 114.511719 316.765625 C 125.179688 317.804688 136.003906 318.0625 146.699219 317.535156 L 147.457031 317.5 C 147.824219 317.484375 148.128906 317.757812 148.152344 318.117188 C 148.160156 318.230469 148.222656 319.230469 148.101562 319.859375 C 147.699219 321.875 146.25 322.710938 145.128906 322.808594 C 141.597656 323.132812 137.824219 323.253906 134.152344 323.253906 " fill-opacity="1" fill-rule="nonzero"/><path fill="#000000" d="M 129.03125 314.945312 C 128.859375 314.945312 128.691406 314.882812 128.5625 314.75 C 128.300781 314.492188 128.300781 314.070312 128.5625 313.8125 L 132.652344 309.714844 C 132.914062 309.457031 133.332031 309.457031 133.59375 309.714844 C 133.851562 309.976562 133.851562 310.398438 133.59375 310.65625 L 129.5 314.75 C 129.371094 314.882812 129.199219 314.945312 129.03125 314.945312 " fill-opacity="1" fill-rule="nonzero"/><path fill="#000000" d="M 133.050781 315.371094 C 132.882812 315.371094 132.71875 315.308594 132.589844 315.1875 C 132.324219 314.929688 132.316406 314.511719 132.570312 314.246094 L 135.839844 310.847656 C 136.09375 310.582031 136.515625 310.574219 136.78125 310.828125 C 137.042969 311.082031 137.050781 311.503906 136.796875 311.769531 L 133.53125 315.167969 C 133.398438 315.300781 133.226562 315.371094 133.050781 315.371094 " fill-opacity="1" fill-rule="nonzero"/><path fill="#000000" d="M 78.445312 239.003906 C 78.445312 239.003906 103.660156 246.511719 130.480469 232.101562 C 131.269531 231.675781 132.113281 232.582031 131.632812 233.34375 C 130.28125 235.480469 126.421875 240.730469 124.410156 246.195312 C 121.929688 252.929688 116.695312 287.765625 114.96875 298.605469 C 114.816406 299.585938 115.550781 300.476562 116.542969 300.511719 L 126.855469 300.84375 C 127.507812 300.867188 128.109375 300.503906 128.390625 299.914062 C 132.113281 292.15625 158.59375 231.308594 157.667969 219.9375 C 156.664062 207.648438 140.453125 208.273438 134.601562 207.898438 C 128.550781 207.507812 80.292969 208.636719 80.292969 208.636719 L 78.445312 239.003906 " fill-opacity="1" fill-rule="nonzero"/><path fill="#ffffff" d="M 8 222.867188 C 8.832031 221.875 9.90625 220.714844 10.832031 219.800781 C 12.027344 218.621094 16.015625 210.851562 16.015625 210.851562 L 22.988281 212.828125 C 22.988281 212.828125 19.730469 218.535156 20.511719 221.378906 C 21.242188 224.027344 21.816406 229.613281 17.941406 233.683594 C 17.5 234.148438 16.527344 234.273438 16.1875 234.195312 C 15.175781 233.957031 15.15625 232.554688 15.652344 231.640625 L 17.050781 229.0625 C 17.171875 228.835938 16.988281 228.566406 16.730469 228.601562 C 15.6875 228.75 13.386719 229.421875 10.976562 232.394531 C 9.125 234.683594 5.453125 239.785156 4.214844 238.941406 C 2.011719 237.429688 3.453125 228.289062 8 222.867188 " fill-opacity="1" fill-rule="nonzero"/><path fill="#000000" d="M 8 222.867188 L 8.003906 222.867188 Z M 16.355469 211.640625 C 15.410156 213.464844 12.398438 219.1875 11.300781 220.273438 C 10.375 221.1875 9.308594 222.34375 8.511719 223.296875 C 5.207031 227.234375 3.476562 233.464844 3.933594 236.8125 C 4.039062 237.578125 4.265625 238.140625 4.5625 238.367188 C 5.464844 238.328125 8.402344 234.585938 9.515625 233.167969 C 9.863281 232.726562 10.179688 232.320312 10.460938 231.976562 C 12.976562 228.871094 15.410156 228.117188 16.640625 227.945312 C 17.007812 227.890625 17.367188 228.050781 17.578125 228.355469 C 17.792969 228.660156 17.8125 229.054688 17.632812 229.382812 L 16.234375 231.957031 C 15.996094 232.398438 15.929688 232.988281 16.078125 233.324219 C 16.152344 233.484375 16.25 233.527344 16.339844 233.546875 C 16.53125 233.582031 17.222656 233.476562 17.460938 233.226562 C 21.613281 228.863281 20.195312 222.738281 19.871094 221.554688 C 19.1875 219.070312 21.109375 214.964844 22.007812 213.242188 Z M 4.59375 238.390625 L 4.597656 238.390625 Z M 4.535156 239.707031 C 4.285156 239.707031 4.058594 239.636719 3.839844 239.488281 C 3.195312 239.046875 2.785156 238.207031 2.617188 236.992188 C 2.125 233.378906 3.847656 226.785156 7.492188 222.441406 C 8.328125 221.445312 9.402344 220.28125 10.363281 219.328125 C 11.1875 218.515625 13.839844 213.632812 15.421875 210.550781 C 15.570312 210.265625 15.890625 210.128906 16.195312 210.210938 L 23.171875 212.191406 C 23.367188 212.246094 23.527344 212.390625 23.605469 212.578125 C 23.679688 212.769531 23.667969 212.980469 23.566406 213.160156 C 22.699219 214.679688 20.570312 219.089844 21.152344 221.203125 C 22.191406 224.980469 22.023438 230.363281 18.425781 234.140625 C 17.773438 234.828125 16.539062 234.960938 16.035156 234.839844 C 15.507812 234.71875 15.09375 234.375 14.867188 233.867188 C 14.546875 233.15625 14.628906 232.132812 15.066406 231.324219 L 16.097656 229.421875 C 15.03125 229.742188 13.300781 230.582031 11.492188 232.8125 C 11.21875 233.152344 10.902344 233.554688 10.558594 233.992188 C 7.90625 237.371094 5.953125 239.707031 4.535156 239.707031 " fill-opacity="1" fill-rule="nonzero"/><path fill="#5479f7" d="M 175.171875 135.152344 L 170.667969 127.550781 C 169.925781 126.300781 167.59375 125.921875 166.429688 126.789062 C 140.960938 145.785156 113.871094 138.035156 109.683594 137.039062 C 99.296875 134.566406 94.066406 134.1875 85.867188 133.6875 C 73.871094 132.957031 56.613281 139.898438 45.003906 151.519531 C 35.765625 160.761719 20.007812 190.742188 12.863281 211.570312 C 12.5625 212.449219 12.949219 213.410156 13.769531 213.835938 L 20.9375 217.558594 C 21.847656 218.027344 22.964844 217.683594 23.445312 216.78125 C 27.09375 209.898438 42.898438 181.378906 59.441406 171.960938 C 60.65625 171.269531 62.488281 172 62.417969 173.398438 C 62.195312 177.78125 59.476562 194.035156 58.648438 209.089844 C 58.539062 211.078125 59.910156 212.839844 61.867188 213.203125 L 69.101562 214.542969 C 81.722656 217.488281 93.558594 214.210938 98.773438 212.347656 C 100.367188 211.777344 101.140625 210.238281 101.382812 208.558594 C 101.785156 205.773438 107.386719 183.449219 117.605469 168.683594 C 118.890625 166.824219 120.839844 165.539062 123.09375 165.40625 C 132.203125 164.875 158.132812 161.230469 175.0625 137.492188 C 175.558594 136.800781 175.605469 135.882812 175.171875 135.152344 " fill-opacity="1" fill-rule="nonzero"/><path fill="#ffffff" d="M 168.972656 129.835938 C 168.875 129.269531 169.074219 128.695312 169.511719 128.324219 C 170.089844 127.832031 171.0625 126.996094 172.476562 125.761719 C 174.964844 123.578125 178.082031 119.226562 180.800781 117.921875 C 183.515625 116.613281 193.371094 112.765625 194.945312 113.582031 C 196.519531 114.398438 195.738281 116.25 193.503906 117.324219 C 191.265625 118.398438 188.351562 119.503906 188.351562 119.503906 C 188.351562 119.503906 189.980469 119.410156 191.183594 121.292969 C 192.386719 123.175781 190.71875 123.933594 191.421875 124.867188 C 192.324219 126.058594 192.058594 127.445312 191.34375 128.054688 C 189.714844 129.4375 187.746094 126.699219 186.277344 129.535156 C 185.253906 131.503906 182.839844 132.785156 177.945312 133.722656 C 176.632812 133.972656 175.378906 134.476562 174.246094 135.1875 C 173.777344 135.480469 173.183594 135.503906 172.699219 135.230469 C 171.53125 134.574219 169.503906 133 168.972656 129.835938 " fill-opacity="1" fill-rule="nonzero"/><path fill="#000000" d="M 194.234375 114.109375 C 192.121094 114.109375 184.332031 116.960938 181.085938 118.523438 C 179.472656 119.296875 177.644531 121.292969 175.875 123.222656 C 174.832031 124.367188 173.84375 125.445312 172.910156 126.261719 C 171.496094 127.5 170.523438 128.339844 169.941406 128.832031 C 169.683594 129.050781 169.566406 129.382812 169.625 129.726562 C 170.113281 132.617188 171.964844 134.050781 173.027344 134.652344 C 173.292969 134.804688 173.625 134.789062 173.894531 134.625 C 175.121094 133.855469 176.445312 133.332031 177.820312 133.070312 C 182.386719 132.195312 184.742188 131.046875 185.683594 129.226562 C 186.761719 127.15625 188.277344 127.46875 189.277344 127.679688 C 190.039062 127.835938 190.488281 127.90625 190.910156 127.546875 C 191.34375 127.179688 191.578125 126.179688 190.894531 125.265625 C 190.375 124.582031 190.609375 123.925781 190.785156 123.445312 C 190.972656 122.914062 191.136719 122.457031 190.621094 121.648438 C 189.65625 120.140625 188.40625 120.167969 188.390625 120.167969 C 188.082031 120.191406 187.773438 119.964844 187.703125 119.644531 C 187.636719 119.320312 187.808594 119 188.117188 118.882812 C 188.148438 118.871094 191.027344 117.773438 193.214844 116.726562 C 194.503906 116.105469 195.097656 115.285156 195.105469 114.789062 C 195.109375 114.695312 195.113281 114.417969 194.636719 114.171875 C 194.546875 114.128906 194.410156 114.109375 194.234375 114.109375 Z M 173.429688 136.089844 C 173.066406 136.089844 172.703125 135.996094 172.375 135.8125 C 171.105469 135.09375 168.894531 133.382812 168.316406 129.945312 C 168.179688 129.148438 168.472656 128.335938 169.082031 127.820312 C 169.65625 127.328125 170.628906 126.496094 172.035156 125.261719 C 172.914062 124.492188 173.878906 123.441406 174.894531 122.328125 C 176.75 120.304688 178.664062 118.207031 180.511719 117.320312 C 181.734375 116.734375 193.097656 111.875 195.25 112.992188 C 196.023438 113.394531 196.445312 114.039062 196.4375 114.808594 C 196.417969 115.953125 195.402344 117.148438 193.789062 117.925781 C 192.636719 118.480469 191.320312 119.035156 190.300781 119.449219 C 190.785156 119.761719 191.292969 120.230469 191.742188 120.933594 C 192.609375 122.289062 192.261719 123.253906 192.035156 123.890625 C 191.875 124.335938 191.886719 124.375 191.953125 124.464844 C 193.074219 125.949219 192.730469 127.746094 191.773438 128.5625 C 190.832031 129.359375 189.820312 129.148438 189.007812 128.980469 C 188.023438 128.773438 187.476562 128.660156 186.863281 129.839844 C 185.714844 132.0625 183.085938 133.417969 178.070312 134.375 C 176.855469 134.609375 175.6875 135.070312 174.597656 135.75 C 174.242188 135.976562 173.835938 136.089844 173.429688 136.089844 " fill-opacity="1" fill-rule="nonzero"/><path fill="#ffffff" d="M 103.132812 113.082031 L 89.660156 135.429688 C 89.472656 135.683594 87.496094 135.613281 85.265625 135.839844 C 84.222656 135.945312 83.132812 136.105469 82.234375 136.25 C 81.492188 136.371094 81.28125 137.339844 81.910156 137.753906 L 84.320312 139.351562 C 89.375 142.703125 95.378906 144.4375 101.429688 144.027344 C 103.113281 143.910156 104.722656 143.640625 106.15625 143.191406 L 111.316406 141.566406 C 112.09375 141.324219 112.085938 140.226562 111.308594 139.992188 L 104.738281 138 L 110.285156 126.214844 L 103.132812 113.082031 " fill-opacity="1" fill-rule="nonzero"/><path fill="#000000" d="M 103.101562 114.417969 L 90.226562 135.773438 C 90.21875 135.789062 90.207031 135.800781 90.195312 135.820312 C 89.902344 136.226562 89.367188 136.253906 87.789062 136.335938 C 87.089844 136.367188 86.222656 136.410156 85.332031 136.5 C 84.460938 136.589844 83.453125 136.726562 82.339844 136.90625 C 82.265625 136.917969 82.222656 136.960938 82.207031 137.035156 C 82.191406 137.105469 82.214844 137.160156 82.273438 137.199219 L 84.6875 138.796875 C 89.714844 142.132812 95.644531 143.75 101.386719 143.363281 C 103.078125 143.246094 104.617188 142.976562 105.960938 142.558594 L 111.117188 140.933594 C 111.144531 140.925781 111.230469 140.898438 111.230469 140.78125 C 111.230469 140.660156 111.144531 140.636719 111.117188 140.628906 L 104.546875 138.636719 C 104.359375 138.578125 104.210938 138.445312 104.128906 138.269531 C 104.050781 138.089844 104.054688 137.890625 104.136719 137.714844 L 109.539062 126.238281 Z M 99.699219 144.75 C 94.238281 144.75 88.707031 143.058594 83.953125 139.90625 L 81.542969 138.308594 C 81.027344 137.96875 80.777344 137.359375 80.90625 136.753906 C 81.039062 136.148438 81.515625 135.691406 82.125 135.59375 C 83.265625 135.410156 84.296875 135.269531 85.199219 135.179688 C 86.121094 135.085938 87.007812 135.039062 87.71875 135.003906 C 88.285156 134.976562 88.914062 134.945312 89.203125 134.898438 L 102.5625 112.738281 C 102.683594 112.539062 102.898438 112.417969 103.132812 112.417969 C 103.136719 112.417969 103.140625 112.417969 103.144531 112.417969 C 103.382812 112.421875 103.601562 112.558594 103.714844 112.765625 L 110.871094 125.898438 C 110.972656 126.082031 110.976562 126.308594 110.886719 126.5 L 105.667969 137.585938 L 111.5 139.355469 C 112.128906 139.542969 112.554688 140.117188 112.558594 140.773438 C 112.5625 141.429688 112.144531 142.007812 111.515625 142.203125 L 106.355469 143.828125 C 104.914062 144.277344 103.273438 144.566406 101.476562 144.6875 C 100.886719 144.730469 100.292969 144.75 99.699219 144.75 " fill-opacity="1" fill-rule="nonzero"/><path fill="#ffffff" d="M 109.148438 126.675781 C 109.851562 126.769531 110.582031 126.796875 111.328125 126.757812 L 112.660156 126.6875 C 112.660156 126.6875 120.289062 125.675781 121.511719 123.78125 C 122.734375 121.890625 120.148438 115.015625 120.148438 115.015625 C 121.328125 114.101562 121.59375 112.9375 121.339844 112.550781 C 121.089844 112.164062 119.386719 111.566406 118.699219 111.058594 C 118.136719 110.644531 116.875 107.351562 116.335938 105.941406 C 116.335938 105.941406 115.335938 100.363281 106.394531 101.089844 C 85.90625 102.75 100.636719 121.722656 100.636719 121.722656 C 100.953125 122.089844 101.28125 122.441406 101.617188 122.777344 L 109.148438 126.675781 " fill-opacity="1" fill-rule="nonzero"/><path fill="#000000" d="M 120.757812 112.863281 Z M 110.6875 127.441406 C 109.539062 127.441406 108.410156 127.285156 107.320312 126.980469 C 106.96875 126.882812 106.761719 126.515625 106.859375 126.164062 C 106.960938 125.808594 107.324219 125.601562 107.679688 125.703125 C 108.839844 126.027344 110.058594 126.160156 111.292969 126.09375 L 112.597656 126.027344 C 115.640625 125.621094 120.226562 124.546875 120.953125 123.421875 C 121.671875 122.308594 120.550781 117.972656 119.527344 115.25 C 119.425781 114.976562 119.511719 114.671875 119.742188 114.492188 C 120.578125 113.839844 120.769531 113.136719 120.765625 112.910156 C 120.578125 112.777344 120.074219 112.53125 119.730469 112.367188 C 119.203125 112.117188 118.664062 111.859375 118.304688 111.59375 C 117.777344 111.203125 117.074219 109.738281 115.714844 106.179688 C 115.699219 106.140625 115.6875 106.101562 115.679688 106.058594 C 115.640625 105.859375 114.632812 101.089844 106.449219 101.753906 C 101.441406 102.15625 98.25 103.589844 96.96875 106.003906 C 94.796875 110.101562 98.285156 116.277344 100.367188 119.964844 L 100.554688 120.292969 C 100.734375 120.613281 100.621094 121.019531 100.300781 121.199219 C 99.980469 121.382812 99.574219 121.269531 99.394531 120.949219 L 99.210938 120.617188 C 96.992188 116.695312 93.28125 110.121094 95.796875 105.382812 C 97.304688 102.539062 100.851562 100.871094 106.339844 100.425781 C 115.1875 99.710938 116.796875 105.027344 116.972656 105.746094 C 118.34375 109.328125 118.890625 110.332031 119.105469 110.535156 C 119.351562 110.710938 119.855469 110.957031 120.300781 111.167969 C 121.167969 111.582031 121.667969 111.832031 121.898438 112.191406 C 122.332031 112.859375 122.027344 114.171875 120.933594 115.21875 C 121.585938 117.046875 123.289062 122.261719 122.070312 124.144531 C 120.746094 126.191406 114.070312 127.171875 112.746094 127.347656 C 112.730469 127.351562 112.710938 127.351562 112.695312 127.351562 L 111.363281 127.421875 C 111.136719 127.433594 110.910156 127.441406 110.6875 127.441406 " fill-opacity="1" fill-rule="nonzero"/><path fill="#000000" d="M 102.210938 98.664062 C 104.445312 98.222656 106.992188 98.570312 108.078125 98.199219 C 109.832031 97.601562 109.792969 95.582031 112.269531 95.382812 C 114.445312 95.207031 116.46875 95.609375 117.566406 97.277344 C 117.75 97.554688 117.910156 97.867188 118.035156 98.21875 C 119.75 102.933594 117.382812 105.207031 116.335938 105.945312 C 116.335938 105.945312 109.699219 109.132812 108.554688 110.046875 C 107.484375 110.90625 106.222656 112.945312 106.910156 115.898438 C 107 116.277344 106.816406 116.671875 106.472656 116.863281 C 106.074219 117.089844 105.566406 116.976562 105.308594 116.597656 C 104.484375 115.410156 102.679688 113.109375 101.339844 113.640625 C 99.78125 114.261719 99.25 118.183594 102.117188 119.15625 C 103 119.453125 103.292969 120.609375 102.65625 121.292969 C 102.128906 121.859375 101.320312 122.253906 100.105469 121.945312 C 100.105469 121.945312 92.96875 116.851562 92.121094 110.144531 C 91.277344 103.433594 99.238281 99.25 102.210938 98.664062 " fill-opacity="1" fill-rule="nonzero"/><path fill="#000000" d="M 333.640625 97.953125 L 346.042969 129.859375 C 351.054688 142.957031 333.5 161.855469 306.832031 172.070312 C 280.167969 182.289062 254.492188 179.953125 249.480469 166.855469 L 237.078125 134.949219 L 333.640625 97.953125 " fill-opacity="1" fill-rule="nonzero"/><path fill="#000000" d="M 237.941406 135.332031 L 250.101562 166.613281 C 252.429688 172.703125 259.53125 176.582031 270.101562 177.542969 C 280.832031 178.519531 293.792969 176.355469 306.597656 171.449219 C 319.398438 166.542969 330.492188 159.492188 337.832031 151.59375 C 345.054688 143.816406 347.75 136.179688 345.421875 130.097656 L 333.261719 98.808594 Z M 275.300781 179.101562 C 273.476562 179.101562 271.699219 179.023438 269.976562 178.867188 C 258.878906 177.859375 251.378906 173.675781 248.859375 167.09375 L 236.457031 135.1875 C 236.394531 135.023438 236.398438 134.839844 236.46875 134.679688 C 236.542969 134.515625 236.671875 134.386719 236.839844 134.328125 L 333.402344 97.332031 C 333.742188 97.199219 334.125 97.371094 334.257812 97.710938 L 346.664062 129.617188 C 349.183594 136.207031 346.390625 144.332031 338.804688 152.496094 C 331.332031 160.542969 320.0625 167.714844 307.070312 172.691406 C 296.132812 176.882812 285.054688 179.101562 275.300781 179.101562 " fill-opacity="1" fill-rule="nonzero"/><path fill="#5479f7" d="M 230.667969 126.265625 L 272.097656 86.113281 C 272.902344 85.421875 273.921875 85.03125 274.984375 85.007812 L 332.617188 87.210938 L 352.332031 79.652344 L 356 89.242188 C 356.230469 89.84375 356.125 90.574219 355.546875 91.074219 L 296.707031 141.785156 C 295.90625 142.476562 294.886719 142.871094 293.820312 142.890625 L 216.183594 144.46875 C 215.417969 144.480469 214.851562 144.011719 214.625 143.410156 L 210.953125 133.820312 L 230.667969 126.265625 " fill-opacity="1" fill-rule="nonzero"/><path fill="#000000" d="M 230.667969 126.269531 L 230.671875 126.269531 Z M 211.8125 134.203125 L 215.242188 143.171875 C 215.363281 143.484375 215.667969 143.832031 216.167969 143.804688 L 293.808594 142.230469 C 294.714844 142.210938 295.589844 141.875 296.273438 141.28125 L 355.109375 90.570312 C 355.589844 90.160156 355.4375 89.636719 355.378906 89.484375 L 351.949219 80.515625 L 332.851562 87.828125 C 332.769531 87.863281 332.679688 87.875 332.585938 87.875 L 274.957031 85.671875 C 274.089844 85.695312 273.214844 86.027344 272.527344 86.621094 L 231.132812 126.746094 C 231.066406 126.808594 230.992188 126.859375 230.90625 126.886719 Z M 216.148438 145.136719 C 215.1875 145.136719 214.347656 144.554688 214 143.648438 L 210.332031 134.058594 C 210.269531 133.894531 210.273438 133.710938 210.347656 133.550781 C 210.417969 133.390625 210.550781 133.261719 210.714844 133.203125 L 230.304688 125.695312 L 271.632812 85.636719 C 272.582031 84.820312 273.753906 84.371094 274.964844 84.34375 L 332.503906 86.539062 L 352.09375 79.035156 C 352.433594 78.902344 352.820312 79.078125 352.953125 79.417969 L 356.621094 89.007812 C 356.972656 89.929688 356.722656 90.9375 355.980469 91.578125 L 297.140625 142.292969 C 296.222656 143.082031 295.046875 143.53125 293.835938 143.554688 L 216.195312 145.136719 C 216.179688 145.136719 216.160156 145.136719 216.148438 145.136719 " fill-opacity="1" fill-rule="nonzero"/><path fill="#000000" d="M 211.40625 131.992188 L 270.246094 81.28125 C 271.046875 80.585938 272.066406 80.195312 273.128906 80.175781 L 350.769531 78.597656 C 352.300781 78.566406 353.035156 80.484375 351.875 81.484375 L 293.039062 132.195312 C 292.234375 132.890625 291.214844 133.28125 290.152344 133.304688 L 212.511719 134.878906 C 210.984375 134.910156 210.25 132.992188 211.40625 131.992188 " fill-opacity="1" fill-rule="nonzero"/><path fill="#000000" d="M 211.84375 132.496094 C 211.460938 132.824219 211.453125 133.273438 211.574219 133.582031 C 211.691406 133.898438 212.007812 134.230469 212.5 134.214844 L 290.136719 132.636719 C 291.042969 132.621094 291.917969 132.285156 292.601562 131.695312 L 351.441406 80.980469 C 351.820312 80.65625 351.828125 80.207031 351.710938 79.894531 C 351.589844 79.585938 351.292969 79.265625 350.804688 79.265625 C 350.796875 79.265625 350.792969 79.265625 350.78125 79.265625 L 273.144531 80.839844 C 272.238281 80.859375 271.363281 81.195312 270.679688 81.785156 Z M 212.476562 135.546875 C 211.515625 135.546875 210.679688 134.964844 210.332031 134.0625 C 209.976562 133.136719 210.230469 132.128906 210.972656 131.488281 L 269.8125 80.777344 C 270.730469 79.984375 271.90625 79.535156 273.117188 79.511719 L 350.757812 77.933594 C 350.773438 77.933594 350.789062 77.933594 350.804688 77.933594 C 351.761719 77.933594 352.605469 78.511719 352.949219 79.417969 C 353.304688 80.339844 353.050781 81.351562 352.308594 81.988281 L 293.472656 132.703125 C 292.550781 133.496094 291.378906 133.941406 290.164062 133.96875 L 212.523438 135.546875 C 212.507812 135.546875 212.492188 135.546875 212.476562 135.546875 " fill-opacity="1" fill-rule="nonzero"/><path fill="#ffffff" d="M 248.273438 161.84375 C 249.722656 161.804688 250.949219 162.90625 251.085938 164.363281 L 254.953125 205.375 L 243.855469 205.664062 L 245.597656 164.503906 C 245.65625 163.042969 246.828125 161.882812 248.273438 161.84375 " fill-opacity="1" fill-rule="nonzero"/><path fill="#ffffff" d="M 248.207031 163.066406 C 247.84375 163.066406 247.546875 162.773438 247.542969 162.414062 L 247.128906 134.359375 C 247.128906 134.164062 247.210938 133.976562 247.355469 133.851562 L 280.523438 104.464844 C 280.796875 104.222656 281.214844 104.246094 281.460938 104.519531 C 281.703125 104.796875 281.679688 105.21875 281.40625 105.460938 L 248.464844 134.644531 L 248.875 162.390625 C 248.878906 162.761719 248.585938 163.0625 248.21875 163.066406 C 248.214844 163.066406 248.207031 163.066406 248.207031 163.066406 " fill-opacity="1" fill-rule="nonzero"/><path fill="#000000" d="M 68.59375 19.492188 C 68.417969 19.492188 68.242188 19.421875 68.109375 19.28125 L 66.039062 17.074219 C 65.789062 16.804688 65.800781 16.386719 66.066406 16.132812 C 66.335938 15.882812 66.753906 15.898438 67.007812 16.164062 L 69.078125 18.371094 C 69.328125 18.636719 69.316406 19.058594 69.050781 19.3125 C 68.921875 19.429688 68.757812 19.492188 68.59375 19.492188 " fill-opacity="1" fill-rule="nonzero"/><path fill="#000000" d="M 75.84375 27.210938 C 75.667969 27.210938 75.492188 27.140625 75.359375 27.003906 L 73.289062 24.796875 C 73.039062 24.527344 73.050781 24.105469 73.316406 23.855469 C 73.585938 23.605469 74.007812 23.617188 74.257812 23.886719 L 76.328125 26.09375 C 76.582031 26.359375 76.566406 26.78125 76.300781 27.03125 C 76.171875 27.152344 76.007812 27.210938 75.84375 27.210938 " fill-opacity="1" fill-rule="nonzero"/><path fill="#000000" d="M 66.226562 26.765625 C 66.046875 26.765625 65.867188 26.695312 65.738281 26.550781 C 65.488281 26.277344 65.507812 25.859375 65.78125 25.613281 L 67.984375 23.601562 C 68.253906 23.355469 68.675781 23.375 68.921875 23.644531 C 69.167969 23.917969 69.148438 24.335938 68.878906 24.585938 L 66.675781 26.59375 C 66.546875 26.710938 66.386719 26.765625 66.226562 26.765625 " fill-opacity="1" fill-rule="nonzero"/><path fill="#000000" d="M 73.9375 19.738281 C 73.757812 19.738281 73.578125 19.664062 73.445312 19.519531 C 73.199219 19.246094 73.21875 18.828125 73.488281 18.582031 L 75.691406 16.570312 C 75.964844 16.324219 76.382812 16.339844 76.632812 16.617188 C 76.878906 16.886719 76.859375 17.304688 76.585938 17.550781 L 74.382812 19.5625 C 74.257812 19.679688 74.097656 19.738281 73.9375 19.738281 " fill-opacity="1" fill-rule="nonzero"/><path fill="#000000" d="M 37.40625 46.894531 C 38.941406 46.980469 40.269531 45.792969 40.351562 44.246094 C 40.390625 43.503906 40.140625 42.78125 39.640625 42.226562 C 39.140625 41.671875 38.453125 41.339844 37.707031 41.300781 C 36.953125 41.265625 36.242188 41.515625 35.6875 42.015625 C 35.128906 42.511719 34.800781 43.203125 34.761719 43.949219 C 34.679688 45.492188 35.867188 46.816406 37.40625 46.894531 Z M 37.558594 48.230469 C 37.484375 48.230469 37.410156 48.230469 37.335938 48.222656 C 35.0625 48.101562 33.3125 46.152344 33.433594 43.878906 C 33.492188 42.777344 33.976562 41.765625 34.796875 41.027344 C 35.617188 40.289062 36.679688 39.917969 37.777344 39.972656 C 38.878906 40.03125 39.890625 40.515625 40.628906 41.335938 C 41.363281 42.15625 41.738281 43.21875 41.679688 44.320312 C 41.5625 46.519531 39.734375 48.230469 37.558594 48.230469 " fill-opacity="1" fill-rule="nonzero"/><path fill="#99b9ff" d="M 21.394531 79.730469 C 19.777344 79.644531 18.539062 78.261719 18.625 76.648438 C 18.710938 75.027344 20.089844 73.789062 21.707031 73.875 C 23.324219 73.960938 24.566406 75.34375 24.476562 76.960938 C 24.390625 78.578125 23.011719 79.816406 21.394531 79.730469 " fill-opacity="1" fill-rule="nonzero"/><path fill="#99b9ff" d="M 335.289062 42.429688 C 333.671875 42.34375 332.433594 40.964844 332.519531 39.347656 C 332.605469 37.730469 333.984375 36.488281 335.601562 36.574219 C 337.21875 36.664062 338.457031 38.042969 338.371094 39.660156 C 338.285156 41.277344 336.90625 42.519531 335.289062 42.429688 " fill-opacity="1" fill-rule="nonzero"/><path fill="#000000" d="M 348.152344 53.613281 C 348.0625 53.613281 347.96875 53.613281 347.878906 53.605469 C 346.546875 53.535156 345.320312 52.949219 344.421875 51.953125 C 343.527344 50.960938 343.074219 49.671875 343.148438 48.335938 C 343.167969 47.96875 343.476562 47.699219 343.847656 47.707031 C 344.214844 47.726562 344.496094 48.042969 344.476562 48.410156 C 344.421875 49.390625 344.753906 50.332031 345.414062 51.0625 C 346.070312 51.792969 346.96875 52.226562 347.949219 52.277344 C 349.976562 52.382812 351.710938 50.828125 351.816406 48.800781 C 351.871094 47.820312 351.539062 46.875 350.882812 46.144531 C 350.226562 45.414062 349.324219 44.980469 348.34375 44.929688 C 347.976562 44.910156 347.695312 44.597656 347.714844 44.230469 C 347.734375 43.863281 348.042969 43.589844 348.414062 43.601562 C 349.75 43.675781 350.976562 44.261719 351.871094 45.257812 C 352.765625 46.25 353.21875 47.535156 353.148438 48.871094 C 353.074219 50.207031 352.488281 51.433594 351.496094 52.328125 C 350.566406 53.164062 349.386719 53.613281 348.152344 53.613281 " fill-opacity="1" fill-rule="nonzero"/></svg>