<svg xmlns="http://www.w3.org/2000/svg" xmlns:xlink="http://www.w3.org/1999/xlink" width="500" zoomAndPan="magnify" viewBox="0 0 375 374.999991" height="500" preserveAspectRatio="xMidYMid meet" version="1.0"><defs><g/></defs><g fill="#000000" fill-opacity="1"><g transform="translate(113.254459, 368.068288)"><g><path d="M 97.136719 -53.207031 C 97.136719 -45.164062 92.804688 -40.835938 84.761719 -40.835938 L 68.675781 -40.835938 C 60.632812 -40.835938 56.300781 -45.164062 56.300781 -53.207031 L 56.300781 -76.71875 C 56.300781 -79.8125 54.445312 -81.667969 51.351562 -81.667969 L 20.417969 -81.667969 C 17.015625 -81.667969 15.46875 -79.8125 15.46875 -76.71875 L 15.46875 -44.546875 C 15.46875 -15.46875 30.933594 0 60.011719 0 L 94.660156 0 C 123.429688 0 139.207031 -15.46875 139.207031 -44.546875 L 139.207031 -242.53125 C 139.207031 -245.621094 137.351562 -247.480469 134.257812 -247.480469 L 102.085938 -247.480469 C 98.683594 -247.480469 97.136719 -245.621094 97.136719 -242.53125 Z M 97.136719 -53.207031 "/></g></g></g><g fill="#000000" fill-opacity="1"><g transform="translate(107.068723, 253.794414)"><g><path d="M 15.46875 -44.546875 C 15.46875 -15.46875 30.933594 0 60.011719 0 L 100.847656 0 C 129.617188 0 145.394531 -15.46875 145.394531 -44.546875 L 145.394531 -130.546875 C 145.394531 -133.949219 143.539062 -135.496094 140.445312 -135.496094 L 88.472656 -135.496094 C 85.070312 -135.496094 83.523438 -133.949219 83.523438 -130.546875 L 83.523438 -99.609375 C 83.523438 -96.515625 85.070312 -94.660156 88.472656 -94.660156 L 104.558594 -94.660156 L 104.558594 -53.207031 C 104.558594 -44.855469 100.230469 -40.835938 92.1875 -40.835938 L 69.914062 -40.835938 C 61.871094 -40.835938 57.539062 -44.855469 57.539062 -53.207031 L 57.539062 -194.269531 C 57.539062 -202.3125 61.558594 -206.644531 69.914062 -206.644531 L 92.1875 -206.644531 C 100.230469 -206.644531 104.558594 -202.3125 104.558594 -194.269531 L 104.558594 -170.761719 C 104.558594 -167.667969 106.105469 -165.8125 109.507812 -165.8125 L 140.445312 -165.8125 C 143.539062 -165.8125 145.394531 -167.667969 145.394531 -170.761719 L 145.394531 -202.933594 C 145.394531 -232.011719 129.617188 -247.480469 100.847656 -247.480469 L 60.011719 -247.480469 C 30.933594 -247.480469 15.46875 -232.011719 15.46875 -202.933594 Z M 15.46875 -44.546875 "/></g></g></g></svg>