<svg xmlns="http://www.w3.org/2000/svg" xmlns:xlink="http://www.w3.org/1999/xlink" width="500" zoomAndPan="magnify" viewBox="0 0 375 374.999991" height="500" preserveAspectRatio="xMidYMid meet" version="1.0">
<defs><g/></defs>
<g fill="#576ee0" fill-opacity="1">
    <g transform="translate(113.254459, 367.399965)">
        <g><path d="M 97.132812 -53.207031 C 97.132812 -45.164062 92.804688 -40.832031 84.761719 -40.832031 L 68.675781 -40.832031 C 60.632812 -40.832031 56.300781 -45.164062 56.300781 -53.207031 L 56.300781 -76.71875 C 56.300781 -79.8125 54.445312 -81.667969 51.351562 -81.667969 L 20.417969 -81.667969 C 17.015625 -81.667969 15.46875 -79.8125 15.46875 -76.71875 L 15.46875 -44.546875 C 15.46875 -15.46875 30.933594 0 60.011719 0 L 94.660156 0 C 123.429688 0 139.207031 -15.46875 139.207031 -44.546875 L 139.207031 -242.527344 C 139.207031 -245.621094 137.347656 -247.476562 134.253906 -247.476562 L 102.082031 -247.476562 C 98.679688 -247.476562 97.132812 -245.621094 97.132812 -242.527344 Z M 97.132812 -53.207031 "/>
        </g></g></g>
        <g fill="#576ee0" fill-opacity="1"><g transform="translate(107.073381, 253.126097)">
        <g><path d="M 15.46875 -44.546875 C 15.46875 -15.46875 30.933594 0 60.011719 0 L 100.847656 0 C 129.617188 0 145.390625 -15.46875 145.390625 -44.546875 L 145.390625 -130.542969 C 145.390625 -133.945312 143.535156 -135.492188 140.441406 -135.492188 L 88.472656 -135.492188 C 85.070312 -135.492188 83.523438 -133.945312 83.523438 -130.542969 L 83.523438 -99.609375 C 83.523438 -96.515625 85.070312 -94.660156 88.472656 -94.660156 L 104.558594 -94.660156 L 104.558594 -53.207031 C 104.558594 -44.855469 100.226562 -40.832031 92.183594 -40.832031 L 69.910156 -40.832031 C 61.867188 -40.832031 57.539062 -44.855469 57.539062 -53.207031 L 57.539062 -194.269531 C 57.539062 -202.3125 61.558594 -206.640625 69.910156 -206.640625 L 92.183594 -206.640625 C 100.226562 -206.640625 104.558594 -202.3125 104.558594 -194.269531 L 104.558594 -170.757812 C 104.558594 -167.664062 106.105469 -165.808594 109.507812 -165.808594 L 140.441406 -165.808594 C 143.535156 -165.808594 145.390625 -167.664062 145.390625 -170.757812 L 145.390625 -202.929688 C 145.390625 -232.007812 129.617188 -247.476562 100.847656 -247.476562 L 60.011719 -247.476562 C 30.933594 -247.476562 15.46875 -232.007812 15.46875 -202.929688 Z M 15.46875 -44.546875 "/>
        </g></g></g></svg>