<svg xmlns="http://www.w3.org/2000/svg" version="1.1" xmlns:xlink="http://www.w3.org/1999/xlink" xmlns:svgjs="http://svgjs.dev/svgjs" width="1440" height="560" preserveAspectRatio="none" viewBox="0 0 1440 560">
    <g mask="url(&quot;#SvgjsMask1368&quot;)" fill="none">
        <rect width="1440" height="560" x="0" y="0" fill="rgba(125, 79, 237, 1)"></rect>
        <!-- <circle r="46.666666666666664" cx="1181.54" cy="294.29" stroke="rgba(212, 235, 219, 1)" stroke-width="1"></circle> -->
        <rect width="60" height="60" clip-path="url(&quot;#SvgjsClipPath1369&quot;)" x="1153.59" y="325.73" fill="url(&quot;#SvgjsPattern1370&quot;)" transform="rotate(277.51, 1183.59, 355.73)"></rect>
        <rect width="216" height="216" clip-path="url(&quot;#SvgjsClipPath1371&quot;)" x="791.47" y="381.92" fill="url(&quot;#SvgjsPattern1372&quot;)" transform="rotate(155.1, 899.47, 489.92)"></rect>
        <path d="M1106.59 186.98999999999998 L982.1 126.85000000000001L1124.670897577512 76.59410242248794z" stroke="rgba(238, 244, 244, 1)" stroke-width="1.05"></path>
        <rect width="162.67999999999998" height="162.67999999999998" clip-path="url(&quot;#SvgjsClipPath1373&quot;)" x="9.13" y="311.18" fill="url(&quot;#SvgjsPattern1374&quot;)" transform="rotate(274.27, 90.47, 392.52)"></rect>
        <rect width="113.2" height="113.2" clip-path="url(&quot;#SvgjsClipPath1375&quot;)" x="1181.26" y="168.76" fill="url(&quot;#SvgjsPattern1376&quot;)" transform="rotate(309.46, 1237.86, 225.36)"></rect>
        <rect width="168" height="168" clip-path="url(&quot;#SvgjsClipPath1377&quot;)" x="1067.51" y="449.23" fill="url(&quot;#SvgjsPattern1378&quot;)" transform="rotate(345.58, 1151.51, 533.23)"></rect>
        <path d="M285.01 88.81a5.6 5.6 0 1 0-8.36 7.45 5.6 5.6 0 1 0 8.36-7.45zM273.07 99.46a5.6 5.6 0 1 0-8.36 7.46 5.6 5.6 0 1 0 8.36-7.46zM261.13 110.11a5.6 5.6 0 1 0-8.35 7.46 5.6 5.6 0 1 0 8.35-7.46zM249.2 120.77a5.6 5.6 0 1 0-8.36 7.46 5.6 5.6 0 1 0 8.36-7.46zM298.23 55.56a5.6 5.6 0 1 0-8.36 7.46 5.6 5.6 0 1 0 8.36-7.46zM286.29 66.22a5.6 5.6 0 1 0-8.36 7.45 5.6 5.6 0 1 0 8.36-7.45zM274.35 76.87a5.6 5.6 0 1 0-8.35 7.46 5.6 5.6 0 1 0 8.35-7.46zM262.42 87.52a5.6 5.6 0 1 0-8.36 7.46 5.6 5.6 0 1 0 8.36-7.46zM311.45 22.32a5.6 5.6 0 1 0-8.36 7.45 5.6 5.6 0 1 0 8.36-7.45zM299.51 32.97a5.6 5.6 0 1 0-8.36 7.46 5.6 5.6 0 1 0 8.36-7.46zM287.57 43.62a5.6 5.6 0 1 0-8.35 7.46 5.6 5.6 0 1 0 8.35-7.46zM275.64 54.28a5.6 5.6 0 1 0-8.36 7.46 5.6 5.6 0 1 0 8.36-7.46z" stroke="rgba(212, 235, 219, 1)" stroke-width="1"></path>
        <path d="M89.52 317.56a5.6 5.6 0 1 0-5.51 9.76 5.6 5.6 0 1 0 5.51-9.76zM81.66 331.5a5.6 5.6 0 1 0-5.5 9.76 5.6 5.6 0 1 0 5.5-9.76zM73.8 345.44a5.6 5.6 0 1 0-5.5 9.75 5.6 5.6 0 1 0 5.5-9.75zM65.94 359.37a5.6 5.6 0 1 0-5.5 9.76 5.6 5.6 0 1 0 5.5-9.76zM91.3 281.83a5.6 5.6 0 1 0-5.5 9.76 5.6 5.6 0 1 0 5.5-9.76zM83.44 295.77a5.6 5.6 0 1 0-5.5 9.75 5.6 5.6 0 1 0 5.5-9.75zM75.58 309.71a5.6 5.6 0 1 0-5.5 9.75 5.6 5.6 0 1 0 5.5-9.75zM67.72 323.64a5.6 5.6 0 1 0-5.5 9.76 5.6 5.6 0 1 0 5.5-9.76zM93.08 246.1a5.6 5.6 0 1 0-5.5 9.75 5.6 5.6 0 1 0 5.5-9.75zM85.22 260.04a5.6 5.6 0 1 0-5.5 9.75 5.6 5.6 0 1 0 5.5-9.75zM77.36 273.97a5.6 5.6 0 1 0-5.5 9.76 5.6 5.6 0 1 0 5.5-9.76zM69.5 287.91a5.6 5.6 0 1 0-5.5 9.75 5.6 5.6 0 1 0 5.5-9.75z" fill="rgba(238, 244, 244, 1)"></path>
        <rect width="125.8" height="125.8" clip-path="url(&quot;#SvgjsClipPath1379&quot;)" x="-59.57" y="13.92" fill="url(&quot;#SvgjsPattern1380&quot;)" transform="rotate(283.67, 3.33, 76.82)"></rect>
        <path d="M864.67 404.41a5.6 5.6 0 1 0 8.63-7.14 5.6 5.6 0 1 0-8.63 7.14zM877 394.21a5.6 5.6 0 1 0 8.63-7.14 5.6 5.6 0 1 0-8.63 7.14zM889.33 384.01a5.6 5.6 0 1 0 8.63-7.14 5.6 5.6 0 1 0-8.63 7.14zM901.66 373.81a5.6 5.6 0 1 0 8.63-7.14 5.6 5.6 0 1 0-8.63 7.14zM850.22 437.14a5.6 5.6 0 1 0 8.63-7.14 5.6 5.6 0 1 0-8.63 7.14zM862.54 426.94a5.6 5.6 0 1 0 8.63-7.14 5.6 5.6 0 1 0-8.63 7.14zM874.87 416.74a5.6 5.6 0 1 0 8.63-7.14 5.6 5.6 0 1 0-8.63 7.14zM887.2 406.54a5.6 5.6 0 1 0 8.63-7.14 5.6 5.6 0 1 0-8.63 7.14zM835.76 469.86a5.6 5.6 0 1 0 8.63-7.14 5.6 5.6 0 1 0-8.63 7.14zM848.09 459.66a5.6 5.6 0 1 0 8.63-7.14 5.6 5.6 0 1 0-8.63 7.14zM860.41 449.46a5.6 5.6 0 1 0 8.63-7.14 5.6 5.6 0 1 0-8.63 7.14zM872.74 439.26a5.6 5.6 0 1 0 8.63-7.13 5.6 5.6 0 1 0-8.63 7.13z" stroke="rgba(202, 180, 255, 1)" stroke-width="1.04" stroke-dasharray="4, 4"></path>
        <rect width="168" height="168" clip-path="url(&quot;#SvgjsClipPath1381&quot;)" x="991.12" y="-2.59" fill="url(&quot;#SvgjsPattern1382&quot;)" transform="rotate(198.62, 1075.12, 81.41)"></rect>
    </g>
    <defs>
        <mask id="SvgjsMask1368">
            <rect width="1440" height="560" fill="#ffffff"></rect>
        </mask>
        <pattern x="0" y="0" width="60" height="6" patternUnits="userSpaceOnUse" id="SvgjsPattern1370">
            <rect width="60" height="3" x="0" y="0" fill="rgba(238, 244, 244, 1)"></rect>
            <rect width="60" height="3" x="0" y="3" fill="rgba(0, 0, 0, 0)"></rect>
        </pattern>
        <clipPath id="SvgjsClipPath1369">
            <circle r="15" cx="1183.59" cy="355.73"></circle>
        </clipPath>
        <pattern x="0" y="0" width="6" height="6" patternUnits="userSpaceOnUse" id="SvgjsPattern1372">
            <path d="M3 1L3 5M1 3L5 3" stroke="rgba(212, 235, 219, 1)" fill="none" stroke-width="1"></path>
        </pattern>
        <clipPath id="SvgjsClipPath1371">
            <circle r="54" cx="899.47" cy="489.92"></circle>
            </clipPath>
        <pattern x="0" y="0" width="11.62" height="11.62" patternUnits="userSpaceOnUse" id="SvgjsPattern1374">
            <path d="M0 11.62L5.81 0L11.62 11.62" stroke="rgba(202, 180, 255, 1)" fill="none"></path>
        </pattern>
        <clipPath id="SvgjsClipPath1373">
            <circle r="40.669999999999995" cx="90.47" cy="392.52"></circle>
        </clipPath>
        <pattern x="0" y="0" width="11.32" height="11.32" patternUnits="userSpaceOnUse" id="SvgjsPattern1376">
            <path d="M0 11.32L5.66 0L11.32 11.32" stroke="rgba(202, 180, 255, 1)" fill="none"></path>
        </pattern>
        <clipPath id="SvgjsClipPath1375">
            <circle r="28.3" cx="1237.86" cy="225.36"></circle>
        </clipPath>
        <pattern x="0" y="0" width="168" height="6" patternUnits="userSpaceOnUse" id="SvgjsPattern1378">
            <rect width="168" height="3" x="0" y="0" fill="rgba(202, 180, 255, 1)"></rect>
            <rect width="168" height="3" x="0" y="3" fill="rgba(0, 0, 0, 0)"></rect>
        </pattern>
        <clipPath id="SvgjsClipPath1377">
            <circle r="42" cx="1151.51" cy="533.23"></circle>
        </clipPath>
        <pattern x="0" y="0" width="12.58" height="12.58" patternUnits="userSpaceOnUse" id="SvgjsPattern1380">
            <path d="M0 12.58L6.29 0L12.58 12.58" stroke="rgba(212, 235, 219, 1)" fill="none"></path>
        </pattern>
        <clipPath id="SvgjsClipPath1379">
            <circle r="31.45" cx="3.33" cy="76.82"></circle>
        </clipPath>
        <pattern x="0" y="0" width="6" height="6" patternUnits="userSpaceOnUse" id="SvgjsPattern1382">
            <path d="M0 6L3 0L6 6" stroke="rgba(212, 235, 219, 1)" fill="none"></path>
        </pattern>
        <clipPath id="SvgjsClipPath1381"><circle r="42" cx="1075.12" cy="81.41"></circle>
        </clipPath>

        <style>
            @keyframes float1 {
                0%{transform: translate(0, 0)}
                50%{transform: translate(-10px, 5px)}
                100%{transform: translate(0, 0)}
            }

            path {
                animation: float1 5s infinite;
            }
            #SvgjsPattern1370 {
                display: none;
            }


        </style>
    </defs>
</svg>
